<svg width="756" height="756" viewBox="0 0 756 756" fill="none" xmlns="http://www.w3.org/2000/svg">
<g clip-path="url(#clip0_805_1073)">
<mask id="mask0_805_1073" style="mask-type:luminance" maskUnits="userSpaceOnUse" x="0" y="0" width="756" height="756">
<path d="M0 0.000940238H755.905V755.906H0V0.000940238Z" fill="white"/>
</mask>
<g mask="url(#mask0_805_1073)">
<path d="M247.393 138.354C188.525 158.639 151.617 184.341 151.617 184.341C151.617 184.341 152.229 203.083 158.333 233.214C159.195 237.462 160.209 242.011 161.305 246.694C163.145 254.57 165.375 263.077 167.975 272.022L167.937 272.039C168.135 272.718 168.379 273.447 168.581 274.13C169.752 278.079 170.972 282.086 172.309 286.213C172.543 286.93 172.808 287.675 173.043 288.398C174.34 292.331 175.713 296.338 177.165 300.414C177.368 300.979 177.535 301.514 177.74 302.082L177.765 302.07L221.144 281.842L232.125 276.721L247.393 269.602V342.417C238.676 325.694 231.592 309.546 225.749 294.302L182.441 314.497C196.588 350.779 217.195 391.426 247.393 432.191C261.411 451.113 277.467 470.037 295.879 488.531V416.89V246.993V212.382L247.393 234.989L232.125 242.11L211.711 251.627C208.885 241.302 206.68 231.81 204.995 223.427C204.005 218.514 203.171 213.93 202.496 209.802C202.493 209.791 202.491 209.777 202.488 209.765C204.348 208.781 206.344 207.753 208.403 206.706C218.993 201.329 232.148 195.243 247.393 189.315V220.379L295.879 197.771V173.717V124.554C278.476 128.479 262.239 133.239 247.393 138.355V138.354Z" fill="white"/>
<path d="M604.287 184.324C604.287 184.324 604.047 192.412 602.119 206.471C600.819 216.291 598.702 229.051 595.283 244.024L545.503 247.874C547.043 241.952 548.392 236.32 549.499 231.024C551.232 223.176 552.579 216.003 553.543 209.84C542.086 203.775 526.775 196.408 508.528 189.331V343.103C518.591 323.942 526.486 305.504 532.792 288.316L575.883 308.44C561.679 346.234 540.4 389.178 508.528 432.218C494.519 451.139 478.438 470.06 460.047 488.547V124.578C477.427 128.478 493.699 133.243 508.528 138.347C567.408 158.664 604.287 184.324 604.287 184.324Z" fill="white"/>
<path d="M398.297 311.197H357.626V163.276C364.309 162.715 371.065 162.269 377.962 162.099C384.86 162.269 391.614 162.715 398.297 163.276V311.197ZM377.962 114.323C371.08 114.472 364.312 114.837 357.626 115.329C340.764 116.569 324.538 118.801 309.144 121.779V170.583V432.689V501.375C323.89 515.18 339.99 528.687 357.626 541.693V480.647V342.567H398.297V480.701V541.693C415.934 528.687 432.033 515.18 446.782 501.375V432.925V170.584V121.779C431.384 118.801 415.16 116.569 398.297 115.329C391.612 114.837 384.846 114.472 377.962 114.323Z" fill="white"/>
<path d="M66.2682 602.403H76.3588C78.6962 602.403 80.4908 602.019 81.7402 601.25C82.9895 600.482 83.6135 599.249 83.6135 597.551C83.6135 595.886 82.9895 594.661 81.7402 593.875C80.4908 593.09 78.6962 592.698 76.3588 592.698H65.7882V587.845H75.1095C77.2868 587.845 78.9602 587.461 80.1295 586.691C81.2988 585.923 81.8842 584.77 81.8842 583.233C81.8842 581.663 81.2988 580.494 80.1295 579.725C78.9602 578.957 77.2868 578.571 75.1095 578.571H66.2682V602.403ZM60.0215 607.305V573.671H75.7815C79.8175 573.671 82.8935 574.463 85.0068 576.049C87.1215 577.635 88.1775 579.757 88.1775 582.415C88.1775 584.21 87.7615 585.739 86.9282 587.005C86.0948 588.27 84.9828 589.246 83.5895 589.935C82.1962 590.625 80.6828 590.969 79.0495 590.969L79.9135 589.238C81.8042 589.238 83.5015 589.583 85.0068 590.271C86.5122 590.961 87.7055 591.962 88.5868 593.274C89.4668 594.589 89.9082 596.222 89.9082 598.175C89.9082 601.058 88.8028 603.301 86.5922 604.902C84.3828 606.505 81.0988 607.305 76.7428 607.305H60.0215Z" fill="white"/>
<path d="M115.853 607.785C111.241 607.785 107.629 606.488 105.019 603.893C102.408 601.298 101.103 597.55 101.103 592.65V573.67H107.349V592.409C107.349 595.869 108.093 598.384 109.583 599.953C111.072 601.524 113.179 602.308 115.901 602.308C118.624 602.308 120.721 601.524 122.196 599.953C123.668 598.384 124.405 595.869 124.405 592.409V573.67H130.556V592.65C130.556 597.55 129.251 601.298 126.64 603.893C124.029 606.488 120.433 607.785 115.853 607.785Z" fill="white"/>
<path d="M154.531 607.785C151.904 607.785 149.39 607.408 146.987 606.656C144.584 605.904 142.679 604.934 141.27 603.749L143.432 598.896C144.778 599.953 146.443 600.834 148.428 601.538C150.415 602.244 152.448 602.596 154.531 602.596C156.292 602.596 157.718 602.404 158.807 602.02C159.896 601.634 160.696 601.114 161.21 600.458C161.722 599.801 161.979 599.057 161.979 598.224C161.979 597.198 161.61 596.373 160.874 595.749C160.136 595.124 159.183 594.628 158.015 594.26C156.844 593.892 155.547 593.548 154.123 593.226C152.696 592.906 151.271 592.53 149.846 592.097C148.42 591.665 147.123 591.105 145.955 590.416C144.784 589.728 143.832 588.806 143.095 587.653C142.358 586.5 141.991 585.026 141.991 583.233C141.991 581.406 142.479 579.733 143.456 578.212C144.432 576.69 145.922 575.473 147.924 574.56C149.926 573.646 152.464 573.19 155.54 573.19C157.558 573.19 159.559 573.448 161.546 573.96C163.532 574.472 165.262 575.209 166.735 576.169L164.766 581.022C163.259 580.126 161.706 579.461 160.104 579.028C158.503 578.596 156.964 578.38 155.492 578.38C153.762 578.38 152.36 578.589 151.288 579.004C150.214 579.421 149.43 579.965 148.934 580.638C148.436 581.31 148.188 582.08 148.188 582.944C148.188 583.97 148.548 584.794 149.27 585.418C149.991 586.044 150.935 586.532 152.104 586.884C153.274 587.237 154.579 587.581 156.02 587.917C157.462 588.253 158.895 588.63 160.32 589.046C161.746 589.462 163.043 590.008 164.212 590.68C165.382 591.353 166.327 592.265 167.047 593.418C167.768 594.572 168.128 596.03 168.128 597.792C168.128 599.585 167.64 601.242 166.663 602.764C165.686 604.286 164.188 605.502 162.171 606.416C160.152 607.329 157.606 607.785 154.531 607.785Z" fill="white"/>
<path d="M179.132 573.671H185.378V607.305H179.132V573.671Z" fill="white"/>
<path d="M199.263 607.305V573.671H204.404L225.497 599.569H222.951V573.671H229.148V607.305H224.008L202.915 581.407H205.461V607.305H199.263Z" fill="white"/>
<path d="M248.752 587.654H265.473V592.795H248.752V587.654ZM249.233 602.069H268.212V607.305H242.986V573.671H267.54V578.909H249.233V602.069Z" fill="white"/>
<path d="M290.41 607.785C287.783 607.785 285.268 607.408 282.866 606.656C280.463 605.904 278.558 604.934 277.148 603.749L279.311 598.896C280.656 599.953 282.322 600.834 284.307 601.538C286.294 602.244 288.327 602.596 290.41 602.596C292.171 602.596 293.596 602.404 294.686 602.02C295.775 601.634 296.575 601.114 297.088 600.458C297.6 599.801 297.858 599.057 297.858 598.224C297.858 597.198 297.488 596.373 296.752 595.749C296.015 595.124 295.062 594.628 293.894 594.26C292.723 593.892 291.426 593.548 290.002 593.226C288.575 592.906 287.15 592.53 285.724 592.097C284.299 591.665 283.002 591.105 281.834 590.416C280.663 589.728 279.711 588.806 278.974 587.653C278.236 586.5 277.87 585.026 277.87 583.233C277.87 581.406 278.358 579.733 279.335 578.212C280.311 576.69 281.8 575.473 283.803 574.56C285.804 573.646 288.343 573.19 291.419 573.19C293.436 573.19 295.438 573.448 297.424 573.96C299.411 574.472 301.14 575.209 302.614 576.169L300.644 581.022C299.138 580.126 297.584 579.461 295.983 579.028C294.382 578.596 292.843 578.38 291.371 578.38C289.64 578.38 288.239 578.589 287.167 579.004C286.092 579.421 285.308 579.965 284.812 580.638C284.315 581.31 284.067 582.08 284.067 582.944C284.067 583.97 284.427 584.794 285.148 585.418C285.87 586.044 286.814 586.532 287.983 586.884C289.152 587.237 290.458 587.581 291.899 587.917C293.34 588.253 294.774 588.63 296.199 589.046C297.624 589.462 298.922 590.008 300.091 590.68C301.26 591.353 302.206 592.265 302.926 593.418C303.647 594.572 304.007 596.03 304.007 597.792C304.007 599.585 303.519 601.242 302.542 602.764C301.564 604.286 300.067 605.502 298.05 606.416C296.031 607.329 293.484 607.785 290.41 607.785Z" fill="white"/>
<path d="M325.437 607.785C322.81 607.785 320.296 607.408 317.893 606.656C315.49 605.904 313.585 604.934 312.176 603.749L314.338 598.896C315.684 599.953 317.349 600.834 319.334 601.538C321.321 602.244 323.354 602.596 325.437 602.596C327.198 602.596 328.624 602.404 329.713 602.02C330.802 601.634 331.602 601.114 332.116 600.458C332.628 599.801 332.885 599.057 332.885 598.224C332.885 597.198 332.516 596.373 331.78 595.749C331.042 595.124 330.089 594.628 328.921 594.26C327.75 593.892 326.453 593.548 325.029 593.226C323.602 592.906 322.177 592.53 320.752 592.097C319.326 591.665 318.029 591.105 316.861 590.416C315.69 589.728 314.738 588.806 314.001 587.653C313.264 586.5 312.897 585.026 312.897 583.233C312.897 581.406 313.385 579.733 314.362 578.212C315.338 576.69 316.828 575.473 318.83 574.56C320.832 573.646 323.37 573.19 326.446 573.19C328.464 573.19 330.465 573.448 332.452 573.96C334.438 574.472 336.168 575.209 337.641 576.169L335.672 581.022C334.165 580.126 332.612 579.461 331.01 579.028C329.409 578.596 327.87 578.38 326.398 578.38C324.668 578.38 323.266 578.589 322.194 579.004C321.12 579.421 320.336 579.965 319.84 580.638C319.342 581.31 319.094 582.08 319.094 582.944C319.094 583.97 319.454 584.794 320.176 585.418C320.897 586.044 321.841 586.532 323.01 586.884C324.18 587.237 325.485 587.581 326.926 587.917C328.368 588.253 329.801 588.63 331.226 589.046C332.652 589.462 333.949 590.008 335.118 590.68C336.288 591.353 337.233 592.265 337.953 593.418C338.674 594.572 339.034 596.03 339.034 597.792C339.034 599.585 338.546 601.242 337.569 602.764C336.592 604.286 335.094 605.502 333.077 606.416C331.058 607.329 328.512 607.785 325.437 607.785Z" fill="white"/>
<path d="M383.814 602.308C385.511 602.308 387.081 602.02 388.522 601.442C389.965 600.866 391.214 600.042 392.27 598.968C393.327 597.896 394.151 596.646 394.745 595.221C395.337 593.796 395.634 592.217 395.634 590.488C395.634 588.758 395.337 587.181 394.745 585.756C394.151 584.33 393.327 583.081 392.27 582.008C391.214 580.934 389.965 580.109 388.522 579.533C387.081 578.956 385.511 578.668 383.814 578.668C382.115 578.668 380.554 578.956 379.13 579.533C377.703 580.109 376.454 580.934 375.382 582.008C374.307 583.081 373.475 584.33 372.883 585.756C372.29 587.181 371.994 588.758 371.994 590.488C371.994 592.186 372.29 593.754 372.883 595.197C373.475 596.638 374.301 597.896 375.358 598.968C376.415 600.042 377.663 600.866 379.105 601.442C380.546 602.02 382.115 602.308 383.814 602.308ZM383.862 607.785C381.235 607.785 378.817 607.353 376.607 606.488C374.397 605.622 372.474 604.414 370.841 602.86C369.207 601.306 367.942 599.481 367.045 597.382C366.149 595.285 365.699 592.986 365.699 590.488C365.699 587.989 366.149 585.692 367.045 583.593C367.942 581.496 369.207 579.669 370.841 578.116C372.474 576.562 374.397 575.353 376.607 574.488C378.817 573.622 381.219 573.19 383.814 573.19C386.439 573.19 388.851 573.622 391.045 574.488C393.239 575.353 395.154 576.562 396.787 578.116C398.421 579.669 399.686 581.496 400.583 583.593C401.479 585.692 401.927 587.989 401.927 590.488C401.927 592.986 401.479 595.293 400.583 597.406C399.686 599.521 398.421 601.346 396.787 602.884C395.154 604.422 393.239 605.622 391.045 606.488C388.851 607.353 386.457 607.785 383.862 607.785Z" fill="white"/>
<path d="M419.081 589.143H435.85V594.429H419.081V589.143ZM419.609 607.305H413.363V573.671H437.915V578.909H419.609V607.305Z" fill="white"/>
<path d="M472.559 589.143H489.328V594.429H472.559V589.143ZM473.087 607.305H466.84V573.671H491.393V578.909H473.087V607.305Z" fill="white"/>
<path d="M502.252 573.671H508.499V607.305H502.252V573.671Z" fill="white"/>
<path d="M529.205 607.305V578.957H518.059V573.671H546.599V578.957H535.452V607.305H529.205Z" fill="white"/>
<path d="M556.111 607.305V573.671H561.253L582.346 599.569H579.799V573.671H585.997V607.305H580.857L559.763 581.407H562.31V607.305H556.111Z" fill="white"/>
<path d="M605.601 587.654H622.323V592.795H605.601V587.654ZM606.081 602.069H625.061V607.305H599.836V573.671H624.388V578.909H606.081V602.069Z" fill="white"/>
<path d="M647.258 607.785C644.632 607.785 642.117 607.408 639.714 606.656C637.312 605.904 635.406 604.934 633.997 603.749L636.16 598.896C637.505 599.953 639.17 600.834 641.156 601.538C643.142 602.244 645.176 602.596 647.258 602.596C649.02 602.596 650.445 602.404 651.534 602.02C652.624 601.634 653.424 601.114 653.937 600.458C654.449 599.801 654.706 599.057 654.706 598.224C654.706 597.198 654.337 596.373 653.601 595.749C652.864 595.124 651.91 594.628 650.742 594.26C649.572 593.892 648.274 593.548 646.85 593.226C645.424 592.906 643.998 592.53 642.573 592.097C641.148 591.665 639.85 591.105 638.682 590.416C637.512 589.728 636.56 588.806 635.822 587.653C635.085 586.5 634.718 585.026 634.718 583.233C634.718 581.406 635.206 579.733 636.184 578.212C637.16 576.69 638.649 575.473 640.652 574.56C642.653 573.646 645.192 573.19 648.268 573.19C650.285 573.19 652.286 573.448 654.273 573.96C656.26 574.472 657.989 575.209 659.462 576.169L657.493 581.022C655.986 580.126 654.433 579.461 652.832 579.028C651.23 578.596 649.692 578.38 648.22 578.38C646.489 578.38 645.088 578.589 644.016 579.004C642.941 579.421 642.157 579.965 641.661 580.638C641.164 581.31 640.916 582.08 640.916 582.944C640.916 583.97 641.276 584.794 641.997 585.418C642.718 586.044 643.662 586.532 644.832 586.884C646.001 587.237 647.306 587.581 648.748 587.917C650.189 588.253 651.622 588.63 653.048 589.046C654.473 589.462 655.77 590.008 656.94 590.68C658.109 591.353 659.054 592.265 659.774 593.418C660.496 594.572 660.856 596.03 660.856 597.792C660.856 599.585 660.368 601.242 659.39 602.764C658.413 604.286 656.916 605.502 654.898 606.416C652.88 607.329 650.333 607.785 647.258 607.785Z" fill="white"/>
<path d="M682.286 607.785C679.659 607.785 677.144 607.408 674.742 606.656C672.339 605.904 670.434 604.934 669.024 603.749L671.187 598.896C672.532 599.953 674.198 600.834 676.183 601.538C678.17 602.244 680.203 602.596 682.286 602.596C684.047 602.596 685.472 602.404 686.562 602.02C687.651 601.634 688.451 601.114 688.964 600.458C689.476 599.801 689.734 599.057 689.734 598.224C689.734 597.198 689.364 596.373 688.628 595.749C687.891 595.124 686.938 594.628 685.77 594.26C684.599 593.892 683.302 593.548 681.878 593.226C680.451 592.906 679.026 592.53 677.602 592.097C676.175 591.665 674.878 591.105 673.71 590.416C672.539 589.728 671.587 588.806 670.85 587.653C670.112 586.5 669.746 585.026 669.746 583.233C669.746 581.406 670.234 579.733 671.211 578.212C672.187 576.69 673.676 575.473 675.679 574.56C677.68 573.646 680.219 573.19 683.295 573.19C685.312 573.19 687.314 573.448 689.3 573.96C691.287 574.472 693.016 575.209 694.49 576.169L692.52 581.022C691.014 580.126 689.46 579.461 687.859 579.028C686.258 578.596 684.719 578.38 683.247 578.38C681.516 578.38 680.115 578.589 679.043 579.004C677.968 579.421 677.184 579.965 676.688 580.638C676.191 581.31 675.943 582.08 675.943 582.944C675.943 583.97 676.303 584.794 677.024 585.418C677.746 586.044 678.69 586.532 679.859 586.884C681.028 587.237 682.334 587.581 683.775 587.917C685.216 588.253 686.65 588.63 688.075 589.046C689.5 589.462 690.798 590.008 691.967 590.68C693.136 591.353 694.082 592.265 694.802 593.418C695.523 594.572 695.883 596.03 695.883 597.792C695.883 599.585 695.395 601.242 694.418 602.764C693.44 604.286 691.943 605.502 689.926 606.416C687.907 607.329 685.36 607.785 682.286 607.785Z" fill="white"/>
</g>
</g>
<defs>
<clipPath id="clip0_805_1073">
<rect width="755.905" height="755.905" fill="white"/>
</clipPath>
</defs>
</svg>
