<?xml version="1.0" encoding="UTF-8" standalone="no"?>
<svg
   xmlns:dc="http://purl.org/dc/elements/1.1/"
   xmlns:cc="http://creativecommons.org/ns#"
   xmlns:rdf="http://www.w3.org/1999/02/22-rdf-syntax-ns#"
   xmlns:svg="http://www.w3.org/2000/svg"
   xmlns="http://www.w3.org/2000/svg"
   viewBox="0 0 755.90533 755.90533"
   height="755.90533"
   width="755.90533"
   xml:space="preserve"
   id="svg2"
   version="1.1"><metadata
     id="metadata8"><rdf:RDF><cc:Work
         rdf:about=""><dc:format>image/svg+xml</dc:format><dc:type
           rdf:resource="http://purl.org/dc/dcmitype/StillImage" /></cc:Work></rdf:RDF></metadata><defs
     id="defs6"><clipPath
       id="clipPath18"
       clipPathUnits="userSpaceOnUse"><path
         id="path16"
         d="M 0,566.929 H 566.929 V 0 H 0 Z" /></clipPath></defs><g
     transform="matrix(1.3333333,0,0,-1.3333333,0,755.90533)"
     id="g10"><g
       id="g12"><g
         clip-path="url(#clipPath18)"
         id="g14"><g
           transform="translate(185.5452,463.1637)"
           id="g20"><path
             id="path22"
             style="fill:#231f20;fill-opacity:1;fill-rule:nonzero;stroke:none"
             d="m 0,0 c -44.151,-15.214 -71.832,-34.49 -71.832,-34.49 0,0 0.459,-14.057 5.037,-36.655 0.646,-3.186 1.407,-6.598 2.229,-10.11 1.38,-5.907 3.052,-12.287 5.002,-18.996 l -0.028,-0.013 c 0.148,-0.509 0.331,-1.056 0.483,-1.568 0.878,-2.962 1.793,-5.967 2.796,-9.062 0.175,-0.538 0.374,-1.097 0.55,-1.639 0.973,-2.95 2.003,-5.955 3.092,-9.012 0.152,-0.424 0.277,-0.825 0.431,-1.251 l 0.019,0.009 32.534,15.171 8.236,3.841 L 0,-98.436 v -54.611 c -6.538,12.542 -11.851,24.653 -16.233,36.086 l -32.481,-15.146 c 10.61,-27.212 26.065,-57.697 48.714,-88.271 10.513,-14.191 22.555,-28.384 36.364,-42.255 v 53.731 127.423 25.958 L 0,-72.476 l -11.451,-5.341 -15.311,-7.138 c -2.119,7.744 -3.773,14.863 -5.037,21.15 -0.742,3.685 -1.368,7.123 -1.874,10.219 -0.002,0.008 -0.004,0.019 -0.006,0.028 1.395,0.738 2.892,1.509 4.436,2.294 7.943,4.033 17.809,8.597 29.243,13.043 v -23.298 l 36.364,16.956 V -26.522 10.35 C 23.312,7.406 11.134,3.836 0,-0.001 Z" /></g><g
           transform="translate(453.2156,428.6856)"
           id="g24"><path
             id="path26"
             style="fill:#231f20;fill-opacity:1;fill-rule:nonzero;stroke:none"
             d="m 0,0 c 0,0 -0.18,-6.066 -1.626,-16.61 -0.975,-7.365 -2.563,-16.935 -5.127,-28.165 l -37.335,-2.887 c 1.155,4.441 2.167,8.665 2.997,12.637 1.3,5.886 2.31,11.266 3.033,15.888 -8.593,4.549 -20.076,10.074 -33.761,15.382 v -115.329 c 7.547,14.371 13.468,28.199 18.198,41.09 l 32.318,-15.093 c -10.653,-28.345 -26.612,-60.553 -50.516,-92.833 -10.507,-14.191 -22.568,-28.382 -36.361,-42.247 V 44.81 C -95.145,41.885 -82.941,38.311 -71.819,34.483 -27.659,19.245 0,0 0,0" /></g><g
           transform="translate(298.7232,333.5317)"
           id="g28"><path
             id="path30"
             style="fill:#231f20;fill-opacity:1;fill-rule:nonzero;stroke:none"
             d="m 0,0 h -30.503 v 110.941 c 5.012,0.421 10.079,0.755 15.252,0.883 5.173,-0.128 10.239,-0.462 15.251,-0.883 z m -15.251,147.656 c -5.162,-0.112 -10.238,-0.386 -15.252,-0.755 -12.647,-0.93 -24.816,-2.604 -36.362,-4.837 v -36.603 -196.58 -51.514 c 11.06,-10.354 23.135,-20.484 36.362,-30.239 v 45.785 103.56 H 0 v -103.601 -45.744 c 13.228,9.755 25.302,19.885 36.364,30.239 v 51.337 196.756 36.604 c -11.549,2.233 -23.717,3.907 -36.364,4.837 -5.014,0.369 -10.088,0.643 -15.251,0.755" /></g><g
           transform="translate(49.7014,115.1263)"
           id="g32"><path
             id="path34"
             style="fill:#231f20;fill-opacity:1;fill-rule:nonzero;stroke:none"
             d="m 0,0 h 7.568 c 1.753,0 3.099,0.288 4.036,0.865 0.937,0.576 1.405,1.501 1.405,2.774 0,1.249 -0.468,2.168 -1.405,2.757 C 10.667,6.985 9.321,7.279 7.568,7.279 H -0.36 v 3.64 h 6.991 c 1.633,0 2.888,0.288 3.765,0.865 0.877,0.576 1.316,1.441 1.316,2.594 0,1.177 -0.439,2.054 -1.316,2.631 -0.877,0.576 -2.132,0.865 -3.765,0.865 H 0 Z m -4.685,-3.676 v 25.225 h 11.82 c 3.027,0 5.334,-0.594 6.919,-1.783 1.586,-1.19 2.378,-2.781 2.378,-4.775 0,-1.346 -0.312,-2.493 -0.937,-3.442 C 14.87,10.6 14.036,9.868 12.991,9.351 11.946,8.834 10.811,8.576 9.586,8.576 l 0.648,1.298 c 1.418,0 2.691,-0.259 3.82,-0.775 1.129,-0.517 2.024,-1.268 2.685,-2.252 0.66,-0.986 0.991,-2.211 0.991,-3.676 0,-2.162 -0.829,-3.844 -2.487,-5.045 -1.657,-1.202 -4.12,-1.802 -7.387,-1.802 z" /></g><g
           transform="translate(86.8901,111.0902)"
           id="g36"><path
             id="path38"
             style="fill:#231f20;fill-opacity:1;fill-rule:nonzero;stroke:none"
             d="m 0,0 c -3.459,0 -6.168,0.973 -8.126,2.919 -1.958,1.946 -2.937,4.757 -2.937,8.432 v 14.235 h 4.685 V 11.532 c 0,-2.595 0.558,-4.481 1.675,-5.658 1.117,-1.178 2.697,-1.766 4.739,-1.766 2.042,0 3.615,0.588 4.721,1.766 1.104,1.177 1.657,3.063 1.657,5.658 v 14.054 h 4.613 V 11.351 C 11.027,7.676 10.048,4.865 8.09,2.919 6.132,0.973 3.435,0 0,0" /></g><g
           transform="translate(115.8985,111.0902)"
           id="g40"><path
             id="path42"
             style="fill:#231f20;fill-opacity:1;fill-rule:nonzero;stroke:none"
             d="m 0,0 c -1.97,0 -3.856,0.283 -5.658,0.847 -1.802,0.564 -3.231,1.291 -4.288,2.18 l 1.622,3.64 C -7.315,5.874 -6.066,5.213 -4.577,4.685 -3.087,4.156 -1.562,3.892 0,3.892 c 1.321,0 2.39,0.144 3.207,0.432 0.817,0.289 1.417,0.679 1.802,1.171 0.384,0.493 0.577,1.051 0.577,1.676 0,0.769 -0.277,1.388 -0.829,1.856 -0.553,0.469 -1.268,0.841 -2.144,1.117 -0.878,0.276 -1.851,0.534 -2.919,0.775 -1.07,0.24 -2.139,0.522 -3.208,0.847 -1.069,0.324 -2.042,0.744 -2.918,1.261 -0.878,0.516 -1.592,1.207 -2.145,2.072 -0.553,0.865 -0.828,1.97 -0.828,3.315 0,1.37 0.366,2.625 1.099,3.766 0.732,1.141 1.849,2.054 3.351,2.739 1.501,0.685 3.405,1.027 5.712,1.027 1.513,0 3.014,-0.193 4.504,-0.577 1.49,-0.384 2.787,-0.937 3.892,-1.657 l -1.477,-3.64 c -1.13,0.672 -2.295,1.171 -3.496,1.496 -1.201,0.324 -2.355,0.486 -3.459,0.486 -1.298,0 -2.349,-0.157 -3.153,-0.468 -0.806,-0.313 -1.394,-0.721 -1.766,-1.226 -0.373,-0.504 -0.559,-1.081 -0.559,-1.729 0,-0.77 0.27,-1.388 0.811,-1.856 0.541,-0.469 1.249,-0.835 2.126,-1.099 0.877,-0.265 1.856,-0.523 2.937,-0.775 C 2.198,14.649 3.273,14.366 4.342,14.054 5.411,13.742 6.384,13.333 7.261,12.829 8.138,12.324 8.847,11.64 9.387,10.775 9.928,9.91 10.198,8.816 10.198,7.495 10.198,6.15 9.832,4.907 9.099,3.766 8.366,2.624 7.243,1.712 5.73,1.027 4.216,0.342 2.306,0 0,0" /></g><path
           id="path44"
           style="fill:#231f20;fill-opacity:1;fill-rule:nonzero;stroke:none"
           d="m 134.349,136.676 h 4.685 v -25.225 h -4.685 z" /><g
           transform="translate(149.4474,111.4506)"
           id="g46"><path
             id="path48"
             style="fill:#231f20;fill-opacity:1;fill-rule:nonzero;stroke:none"
             d="M 0,0 V 25.225 H 3.856 L 19.676,5.802 h -1.91 v 19.423 h 4.648 V 0 H 18.559 L 2.739,19.423 h 1.91 L 4.649,0 Z" /></g><path
           id="path50"
           style="fill:#231f20;fill-opacity:1;fill-rule:nonzero;stroke:none"
           d="m 186.564,126.189 h 12.541 v -3.856 h -12.541 z m 0.361,-10.811 h 14.234 v -3.927 H 182.24 v 25.225 h 18.415 v -3.928 h -13.73 z" /><g
           transform="translate(217.8076,111.0902)"
           id="g52"><path
             id="path54"
             style="fill:#231f20;fill-opacity:1;fill-rule:nonzero;stroke:none"
             d="m 0,0 c -1.97,0 -3.856,0.283 -5.658,0.847 -1.802,0.564 -3.231,1.291 -4.288,2.18 l 1.622,3.64 C -7.315,5.874 -6.066,5.213 -4.577,4.685 -3.087,4.156 -1.562,3.892 0,3.892 c 1.321,0 2.39,0.144 3.207,0.432 0.817,0.289 1.417,0.679 1.802,1.171 0.384,0.493 0.577,1.051 0.577,1.676 0,0.769 -0.277,1.388 -0.829,1.856 -0.553,0.469 -1.268,0.841 -2.144,1.117 -0.878,0.276 -1.851,0.534 -2.919,0.775 -1.07,0.24 -2.139,0.522 -3.208,0.847 -1.069,0.324 -2.042,0.744 -2.918,1.261 -0.878,0.516 -1.592,1.207 -2.145,2.072 -0.553,0.865 -0.828,1.97 -0.828,3.315 0,1.37 0.366,2.625 1.099,3.766 0.732,1.141 1.849,2.054 3.351,2.739 1.501,0.685 3.405,1.027 5.712,1.027 1.513,0 3.014,-0.193 4.504,-0.577 1.49,-0.384 2.787,-0.937 3.892,-1.657 l -1.477,-3.64 c -1.13,0.672 -2.295,1.171 -3.496,1.496 -1.201,0.324 -2.355,0.486 -3.459,0.486 -1.298,0 -2.349,-0.157 -3.153,-0.468 -0.806,-0.313 -1.394,-0.721 -1.766,-1.226 -0.373,-0.504 -0.559,-1.081 -0.559,-1.729 0,-0.77 0.27,-1.388 0.811,-1.856 0.541,-0.469 1.249,-0.835 2.126,-1.099 0.877,-0.265 1.856,-0.523 2.937,-0.775 C 2.198,14.649 3.273,14.366 4.342,14.054 5.411,13.742 6.384,13.333 7.261,12.829 8.138,12.324 8.847,11.64 9.387,10.775 9.928,9.91 10.198,8.816 10.198,7.495 10.198,6.15 9.832,4.907 9.099,3.766 8.366,2.624 7.243,1.712 5.73,1.027 4.216,0.342 2.306,0 0,0" /></g><g
           transform="translate(244.0778,111.0902)"
           id="g56"><path
             id="path58"
             style="fill:#231f20;fill-opacity:1;fill-rule:nonzero;stroke:none"
             d="m 0,0 c -1.97,0 -3.856,0.283 -5.658,0.847 -1.802,0.564 -3.231,1.291 -4.288,2.18 l 1.622,3.64 C -7.315,5.874 -6.066,5.213 -4.577,4.685 -3.087,4.156 -1.562,3.892 0,3.892 c 1.321,0 2.39,0.144 3.207,0.432 0.817,0.289 1.417,0.679 1.802,1.171 0.384,0.493 0.577,1.051 0.577,1.676 0,0.769 -0.277,1.388 -0.829,1.856 -0.553,0.469 -1.268,0.841 -2.144,1.117 -0.878,0.276 -1.851,0.534 -2.919,0.775 -1.07,0.24 -2.139,0.522 -3.208,0.847 -1.069,0.324 -2.042,0.744 -2.918,1.261 -0.878,0.516 -1.592,1.207 -2.145,2.072 -0.553,0.865 -0.828,1.97 -0.828,3.315 0,1.37 0.366,2.625 1.099,3.766 0.732,1.141 1.849,2.054 3.351,2.739 1.501,0.685 3.405,1.027 5.712,1.027 1.513,0 3.014,-0.193 4.504,-0.577 1.49,-0.384 2.787,-0.937 3.892,-1.657 l -1.477,-3.64 c -1.13,0.672 -2.295,1.171 -3.496,1.496 -1.201,0.324 -2.355,0.486 -3.459,0.486 -1.298,0 -2.349,-0.157 -3.153,-0.468 -0.806,-0.313 -1.394,-0.721 -1.766,-1.226 -0.373,-0.504 -0.559,-1.081 -0.559,-1.729 0,-0.77 0.27,-1.388 0.811,-1.856 0.541,-0.469 1.249,-0.835 2.126,-1.099 0.877,-0.265 1.856,-0.523 2.937,-0.775 C 2.198,14.649 3.273,14.366 4.342,14.054 5.411,13.742 6.384,13.333 7.261,12.829 8.138,12.324 8.847,11.64 9.387,10.775 9.928,9.91 10.198,8.816 10.198,7.495 10.198,6.15 9.832,4.907 9.099,3.766 8.366,2.624 7.243,1.712 5.73,1.027 4.216,0.342 2.306,0 0,0" /></g><g
           transform="translate(287.861,115.1983)"
           id="g60"><path
             id="path62"
             style="fill:#231f20;fill-opacity:1;fill-rule:nonzero;stroke:none"
             d="m 0,0 c 1.273,0 2.45,0.216 3.531,0.649 1.082,0.432 2.019,1.05 2.811,1.856 0.793,0.804 1.411,1.741 1.856,2.81 0.444,1.069 0.667,2.253 0.667,3.55 0,1.297 -0.223,2.48 -0.667,3.549 C 7.753,13.483 7.135,14.42 6.342,15.225 5.55,16.03 4.613,16.649 3.531,17.081 2.45,17.514 1.273,17.73 0,17.73 c -1.274,0 -2.445,-0.216 -3.513,-0.649 -1.07,-0.432 -2.007,-1.051 -2.811,-1.856 -0.806,-0.805 -1.43,-1.742 -1.874,-2.811 -0.445,-1.069 -0.667,-2.252 -0.667,-3.549 0,-1.274 0.222,-2.45 0.667,-3.532 0.444,-1.081 1.063,-2.024 1.856,-2.828 0.793,-0.806 1.729,-1.424 2.81,-1.856 C -2.451,0.216 -1.274,0 0,0 m 0.036,-4.108 c -1.97,0 -3.784,0.324 -5.441,0.973 -1.658,0.649 -3.1,1.555 -4.325,2.721 -1.225,1.165 -2.174,2.534 -2.847,4.108 -0.672,1.573 -1.009,3.297 -1.009,5.171 0,1.874 0.337,3.597 1.009,5.171 0.673,1.573 1.622,2.943 2.847,4.108 1.225,1.165 2.667,2.072 4.325,2.721 1.657,0.649 3.459,0.973 5.405,0.973 1.969,0 3.778,-0.324 5.423,-0.973 1.646,-0.649 3.082,-1.556 4.307,-2.721 1.225,-1.165 2.174,-2.535 2.847,-4.108 0.672,-1.574 1.008,-3.297 1.008,-5.171 0,-1.874 -0.336,-3.604 -1.008,-5.189 C 11.904,2.09 10.955,0.721 9.73,-0.432 8.505,-1.586 7.069,-2.486 5.423,-3.135 3.778,-3.784 1.982,-4.108 0.036,-4.108" /></g><path
           id="path64"
           style="fill:#231f20;fill-opacity:1;fill-rule:nonzero;stroke:none"
           d="m 314.311,125.072 h 12.577 v -3.964 h -12.577 z m 0.396,-13.621 h -4.684 v 25.225 h 18.414 v -3.928 h -13.73 z" /><path
           id="path66"
           style="fill:#231f20;fill-opacity:1;fill-rule:nonzero;stroke:none"
           d="m 354.419,125.072 h 12.577 v -3.964 h -12.577 z m 0.396,-13.621 h -4.685 v 25.225 h 18.415 v -3.928 h -13.73 z" /><path
           id="path68"
           style="fill:#231f20;fill-opacity:1;fill-rule:nonzero;stroke:none"
           d="m 376.689,136.676 h 4.685 v -25.225 h -4.685 z" /><g
           transform="translate(396.9043,111.4506)"
           id="g70"><path
             id="path72"
             style="fill:#231f20;fill-opacity:1;fill-rule:nonzero;stroke:none"
             d="m 0,0 v 21.261 h -8.36 v 3.964 H 13.045 V 21.261 H 4.685 L 4.685,0 Z" /></g><g
           transform="translate(417.0841,111.4506)"
           id="g74"><path
             id="path76"
             style="fill:#231f20;fill-opacity:1;fill-rule:nonzero;stroke:none"
             d="M 0,0 V 25.225 H 3.856 L 19.676,5.802 h -1.91 v 19.423 h 4.648 V 0 H 18.559 L 2.739,19.423 h 1.91 L 4.649,0 Z" /></g><path
           id="path78"
           style="fill:#231f20;fill-opacity:1;fill-rule:nonzero;stroke:none"
           d="m 454.201,126.189 h 12.541 v -3.856 h -12.541 z m 0.36,-10.811 h 14.235 v -3.927 h -18.919 v 25.225 h 18.414 v -3.928 h -13.73 z" /><g
           transform="translate(485.4441,111.0902)"
           id="g80"><path
             id="path82"
             style="fill:#231f20;fill-opacity:1;fill-rule:nonzero;stroke:none"
             d="m 0,0 c -1.97,0 -3.856,0.283 -5.658,0.847 -1.802,0.564 -3.231,1.291 -4.288,2.18 l 1.622,3.64 C -7.315,5.874 -6.066,5.213 -4.577,4.685 -3.087,4.156 -1.562,3.892 0,3.892 c 1.321,0 2.39,0.144 3.207,0.432 0.817,0.289 1.417,0.679 1.802,1.171 0.384,0.493 0.577,1.051 0.577,1.676 0,0.769 -0.277,1.388 -0.829,1.856 -0.553,0.469 -1.268,0.841 -2.144,1.117 -0.878,0.276 -1.851,0.534 -2.919,0.775 -1.07,0.24 -2.139,0.522 -3.208,0.847 -1.069,0.324 -2.042,0.744 -2.918,1.261 -0.878,0.516 -1.592,1.207 -2.145,2.072 -0.553,0.865 -0.828,1.97 -0.828,3.315 0,1.37 0.366,2.625 1.099,3.766 0.732,1.141 1.849,2.054 3.351,2.739 1.501,0.685 3.405,1.027 5.712,1.027 1.513,0 3.014,-0.193 4.504,-0.577 1.49,-0.384 2.787,-0.937 3.892,-1.657 l -1.477,-3.64 c -1.13,0.672 -2.295,1.171 -3.496,1.496 -1.201,0.324 -2.355,0.486 -3.459,0.486 -1.298,0 -2.349,-0.157 -3.153,-0.468 -0.806,-0.313 -1.394,-0.721 -1.766,-1.226 -0.373,-0.504 -0.559,-1.081 -0.559,-1.729 0,-0.77 0.27,-1.388 0.811,-1.856 0.541,-0.469 1.249,-0.835 2.126,-1.099 0.877,-0.265 1.856,-0.523 2.937,-0.775 C 2.198,14.649 3.273,14.366 4.342,14.054 5.411,13.742 6.384,13.333 7.261,12.829 8.138,12.324 8.847,11.64 9.387,10.775 9.928,9.91 10.198,8.816 10.198,7.495 10.198,6.15 9.832,4.907 9.099,3.766 8.366,2.624 7.243,1.712 5.73,1.027 4.216,0.342 2.306,0 0,0" /></g><g
           transform="translate(511.7143,111.0902)"
           id="g84"><path
             id="path86"
             style="fill:#231f20;fill-opacity:1;fill-rule:nonzero;stroke:none"
             d="m 0,0 c -1.97,0 -3.856,0.283 -5.658,0.847 -1.802,0.564 -3.231,1.291 -4.288,2.18 l 1.622,3.64 C -7.315,5.874 -6.066,5.213 -4.577,4.685 -3.087,4.156 -1.562,3.892 0,3.892 c 1.321,0 2.39,0.144 3.207,0.432 0.817,0.289 1.417,0.679 1.802,1.171 0.384,0.493 0.577,1.051 0.577,1.676 0,0.769 -0.277,1.388 -0.829,1.856 -0.553,0.469 -1.268,0.841 -2.144,1.117 -0.878,0.276 -1.851,0.534 -2.919,0.775 -1.07,0.24 -2.139,0.522 -3.207,0.847 -1.07,0.324 -2.043,0.744 -2.919,1.261 -0.878,0.516 -1.592,1.207 -2.145,2.072 -0.553,0.865 -0.828,1.97 -0.828,3.315 0,1.37 0.366,2.625 1.099,3.766 0.732,1.141 1.849,2.054 3.351,2.739 1.501,0.685 3.405,1.027 5.712,1.027 1.513,0 3.014,-0.193 4.504,-0.577 1.49,-0.384 2.787,-0.937 3.892,-1.657 l -1.477,-3.64 c -1.13,0.672 -2.295,1.171 -3.496,1.496 -1.201,0.324 -2.355,0.486 -3.459,0.486 -1.298,0 -2.349,-0.157 -3.153,-0.468 -0.806,-0.313 -1.394,-0.721 -1.766,-1.226 -0.373,-0.504 -0.559,-1.081 -0.559,-1.729 0,-0.77 0.27,-1.388 0.811,-1.856 0.541,-0.469 1.249,-0.835 2.126,-1.099 0.877,-0.265 1.856,-0.523 2.937,-0.775 C 2.198,14.649 3.273,14.366 4.342,14.054 5.411,13.742 6.384,13.333 7.261,12.829 8.138,12.324 8.847,11.64 9.387,10.775 9.928,9.91 10.198,8.816 10.198,7.495 10.198,6.15 9.832,4.907 9.099,3.766 8.366,2.624 7.243,1.712 5.73,1.027 4.216,0.342 2.306,0 0,0" /></g></g></g></g></svg>